# xmcd CD database file
#
# Track frame offsets:
#	150
#	19666
#	41362
#	57631
#	73663
#	89689
#	102512
#	121741
#	138637
#	155644
#	168714
#	182397
#	197826
#	211765
#	228531
#	244704
#
# Disc length: 3547 seconds
#
# Revision: 0
# Processed by: cddbd v1.5.2PL0 Copyright (c) Steve Scherf et al.
# Submitted via: CDex 1.51
#
DISCID=e50dd910
DTITLE=Ronny and Raney - Arrocha Universitário
DYEAR=2010
DGENRE=Country
TTITLE0=Mentes tão bem
TTITLE1=Sem esse coração
TTITLE2=Amo noite e dia
TTITLE3=Tão linda e tão louca
TTITLE4=O que é o que é
TTITLE5=24 horas
TTITLE6=Dois corações e uma história
TTITLE7=Anjo bom
TTITLE8=Tempo ao tempo
TTITLE9=Cada volta é um recomeço
TTITLE10=O meu é bem maior
TTITLE11=Traz mais uma
TTITLE12=Nosso amor já era
TTITLE13=Dessa vez doeu
TTITLE14=Bandida
TTITLE15=É o amor - No dia que sair de casa - Coração tá em pedaços
EXTD=YEAR: 2010
EXTT0=
EXTT1=
EXTT2=
EXTT3=
EXTT4=
EXTT5=
EXTT6=
EXTT7=
EXTT8=
EXTT9=
EXTT10=
EXTT11=
EXTT12=
EXTT13=
EXTT14=
EXTT15=
PLAYORDER=
